<?xml version="1.0" encoding="utf-8"?>
<!-- Generator: Adobe Illustrator 15.0.2, SVG Export Plug-In . SVG Version: 6.00 Build 0)  -->
<!DOCTYPE svg PUBLIC "-//W3C//DTD SVG 1.1//EN" "http://www.w3.org/Graphics/SVG/1.1/DTD/svg11.dtd" [
	<!ENTITY st0 "fill:url(#SVGID_7_);">
	<!ENTITY st1 "fill:url(#SVGID_8_);">
	<!ENTITY st2 "fill:url(#SVGID_9_);">
	<!ENTITY st3 "fill:url(#SVGID_10_);">
	<!ENTITY st4 "fill:url(#SVGID_11_);">
	<!ENTITY st5 "fill:url(#SVGID_12_);">
	<!ENTITY st6 "fill:url(#SVGID_13_);">
	<!ENTITY st7 "fill:url(#SVGID_14_);">
	<!ENTITY st8 "fill:url(#SVGID_15_);">
	<!ENTITY st9 "fill:url(#SVGID_16_);">
	<!ENTITY st10 "fill:url(#SVGID_17_);">
	<!ENTITY st11 "fill:url(#SVGID_18_);">
	<!ENTITY st12 "fill:url(#SVGID_19_);">
	<!ENTITY st13 "fill:url(#SVGID_26_);">
	<!ENTITY st14 "fill:url(#SVGID_27_);">
	<!ENTITY st15 "fill:url(#SVGID_28_);">
	<!ENTITY st16 "fill:url(#SVGID_29_);">
	<!ENTITY st17 "fill:url(#SVGID_30_);">
	<!ENTITY st18 "fill:url(#SVGID_31_);">
	<!ENTITY st19 "fill:url(#SVGID_32_);">
	<!ENTITY st20 "fill:url(#SVGID_33_);">
	<!ENTITY st21 "fill:url(#SVGID_34_);">
	<!ENTITY st22 "fill:url(#SVGID_35_);">
	<!ENTITY st23 "fill:url(#SVGID_36_);">
	<!ENTITY st24 "fill:url(#SVGID_37_);">
	<!ENTITY st25 "fill:url(#SVGID_38_);">
	<!ENTITY st26 "fill-rule:evenodd;clip-rule:evenodd;fill:url(#SVGID_20_);">
	<!ENTITY st27 "fill-rule:evenodd;clip-rule:evenodd;fill:url(#SVGID_21_);">
	<!ENTITY st28 "fill-rule:evenodd;clip-rule:evenodd;fill:url(#SVGID_22_);">
	<!ENTITY st29 "fill-rule:evenodd;clip-rule:evenodd;fill:url(#SVGID_23_);">
	<!ENTITY st30 "fill-rule:evenodd;clip-rule:evenodd;fill:url(#SVGID_24_);">
	<!ENTITY st31 "fill-rule:evenodd;clip-rule:evenodd;fill:url(#SVGID_25_);">
	<!ENTITY st32 "fill-rule:evenodd;clip-rule:evenodd;fill:url(#SVGID_1_);">
	<!ENTITY st33 "fill-rule:evenodd;clip-rule:evenodd;fill:url(#SVGID_2_);">
	<!ENTITY st34 "fill-rule:evenodd;clip-rule:evenodd;fill:url(#SVGID_3_);">
	<!ENTITY st35 "fill-rule:evenodd;clip-rule:evenodd;fill:url(#SVGID_4_);">
	<!ENTITY st36 "fill-rule:evenodd;clip-rule:evenodd;fill:url(#SVGID_5_);">
	<!ENTITY st37 "fill-rule:evenodd;clip-rule:evenodd;fill:url(#SVGID_6_);">
]>
<svg version="1.1" id="Layer_1" xmlns="http://www.w3.org/2000/svg" xmlns:xlink="http://www.w3.org/1999/xlink" x="0px" y="0px"
	 width="102.062px" height="44.9px" viewBox="0 0 102.062 44.9" style="enable-background:new 0 0 102.062 44.9;"
	 xml:space="preserve">
<g>
	<g>
		<linearGradient id="SVGID_1_" gradientUnits="userSpaceOnUse" x1="23.5815" y1="0.4312" x2="23.5815" y2="44.7659">
			<stop  offset="0" style="stop-color:#0087D4"/>
			<stop  offset="1" style="stop-color:#00619A"/>
		</linearGradient>
		<path style="&st32;" d="M23.608,7.872c-0.998,0-1.849-0.377-2.552-1.132c-0.705-0.758-1.057-1.651-1.057-2.682
			c0-1.065,0.352-1.976,1.057-2.734c0.703-0.754,1.555-1.134,2.552-1.134c0.96,0,1.798,0.379,2.499,1.134
			c0.705,0.759,1.057,1.669,1.057,2.734c0,1.031-0.352,1.924-1.057,2.682C25.406,7.495,24.568,7.872,23.608,7.872L23.608,7.872z
			 M23.608,7.872"/>
		<linearGradient id="SVGID_2_" gradientUnits="userSpaceOnUse" x1="23.6021" y1="0.4312" x2="23.602" y2="44.7659">
			<stop  offset="0" style="stop-color:#0087D4"/>
			<stop  offset="1" style="stop-color:#00619A"/>
		</linearGradient>
		<path style="&st33;" d="M20.856,33.471c0-0.656,0-2.221,0-3.797V14.369c0-1.541,0-2.602,0-3.198h5.491c0,0.61,0,1.657,0,3.101
			v15.105c0,1.673,0,3.299,0,4.093H20.856z M20.856,33.471"/>
		<linearGradient id="SVGID_3_" gradientUnits="userSpaceOnUse" x1="35.2407" y1="0.4312" x2="35.2407" y2="44.7659">
			<stop  offset="0" style="stop-color:#0087D4"/>
			<stop  offset="1" style="stop-color:#00619A"/>
		</linearGradient>
		<path style="&st34;" d="M36.758,11.171h4.087v4.998c-0.164,0-0.496,0-0.908,0c-0.447,0-0.668,0-1.063,0h-2.116v9.284
			c0,2.197,0.723,3.297,2.165,3.297c1.018,0,2.066-0.279,2.884-0.837v4.918c-1.213,0.66-2.801,0.986-4.508,0.986
			c-2.394,0-4.052-0.854-4.97-2.558c-0.689-1.28-1.033-3.297-1.033-6.055v-8.937l0,0v-0.099h-0.689c-0.426,0-1.28,0-1.932,0v-4.998
			h2.67V9.252c0-0.918,0-1.649,0-2.214h5.413c0,0.593,0,1.33,0,2.116V11.171z M36.758,11.171"/>
		<linearGradient id="SVGID_4_" gradientUnits="userSpaceOnUse" x1="52.7783" y1="0.4312" x2="52.7783" y2="44.7659">
			<stop  offset="0" style="stop-color:#0087D4"/>
			<stop  offset="1" style="stop-color:#00619A"/>
		</linearGradient>
		<path style="&st35;" d="M53.72,11.022c-1.408,0-2.755,0.494-4.3,1.479V3.89c0-1.871,0-3.89,0-3.89h-5.491c0,0,0,1.954,0,3.89
			v26.031c0,1.507,0,3.55,0,3.55h5.491v-1.671c0,0,0-1.321,0-1.878V17.816c1.15-1.083,2.133-1.624,3.22-1.624
			c1.247,0,2.134,0.621,2.79,1.869c0.492,0.984,0.737,2.212,0.737,3.69l-0.026,6.645c0,1.116,0,5.075,0,5.075h5.488v-4.978v-6.742
			c0-2.853-0.638-5.282-1.918-7.281C58.266,12.172,56.314,11.022,53.72,11.022L53.72,11.022z M53.72,11.022"/>
		<linearGradient id="SVGID_5_" gradientUnits="userSpaceOnUse" x1="72.5073" y1="0.4312" x2="72.5073" y2="44.7659">
			<stop  offset="0" style="stop-color:#0087D4"/>
			<stop  offset="1" style="stop-color:#00619A"/>
		</linearGradient>
		<path style="&st36;" d="M71.078,33.668c-2.592,0-4.51-1.147-5.756-3.443c-0.984-1.873-1.476-4.314-1.476-7.333v-7.194
			c0-2.23,0-4.527,0-4.527h5.476v4.626l-0.016,7.096c0,1.869,0.213,3.214,0.642,4.036c0.492,1.017,1.396,1.525,2.706,1.525
			c0.918,0,1.954-0.541,3.097-1.626V14.272c0-0.557,0-1.918,0-1.918v-1.183h5.417c0,0,0,1.59,0,3.101v15.511
			c0,1.934,0,3.688,0,3.688h-5.264v-1.77C74.391,33.012,72.785,33.668,71.078,33.668L71.078,33.668z M71.078,33.668"/>
		<linearGradient id="SVGID_6_" gradientUnits="userSpaceOnUse" x1="92.6431" y1="0.4312" x2="92.6431" y2="44.7659">
			<stop  offset="0" style="stop-color:#0087D4"/>
			<stop  offset="1" style="stop-color:#00619A"/>
		</linearGradient>
		<path style="&st37;" d="M93.484,33.619c-1.772,0-3.571-0.64-4.75-1.918v1.77h-5.197c0,0,0-1.592,0-3.098V3.89
			c0-1.936,0-3.89,0-3.89h5.493c0,0,0,2.019,0,3.89v8.563c1.507-0.952,3.307-1.43,4.751-1.43c2.588,0,4.625,1.15,6.1,3.447
			c1.248,1.999,1.869,4.686,1.869,7.54c0,2.92-0.656,5.656-1.968,7.821C98.209,32.356,96.108,33.619,93.484,33.619L93.484,33.619z
			 M92.23,16.192c-1.083,0-2.021,0.542-3.2,1.624v8.964c1.049,1.018,1.889,1.525,2.904,1.525c1.28,0,2.762-0.706,3.421-2.116
			c0.523-1.114,0.784-2.637,0.784-4.18C96.139,18.302,94.49,16.192,92.23,16.192L92.23,16.192z M92.23,16.192"/>
	</g>
	<g>
		<linearGradient id="SVGID_7_" gradientUnits="userSpaceOnUse" x1="23.0913" y1="0.4312" x2="23.0913" y2="44.7659">
			<stop  offset="0" style="stop-color:#0087D4"/>
			<stop  offset="1" style="stop-color:#00619A"/>
		</linearGradient>
		<path style="&st0;" d="M24.72,37.737c-0.312-0.423-0.713-0.691-1.26-0.691c-0.525,0-1.025,0.403-1.025,0.948
			c0,1.415,3.333,0.824,3.333,3.646c0,1.681-1.047,2.876-2.766,2.876c-1.16,0-2.007-0.669-2.586-1.64l1.059-1.037
			c0.223,0.648,0.814,1.227,1.519,1.227c0.666,0,1.081-0.569,1.081-1.217c0-0.867-0.804-1.112-1.462-1.369
			c-1.083-0.446-1.875-0.994-1.875-2.297c0-1.395,1.039-2.521,2.453-2.521c0.749,0,1.786,0.368,2.297,0.935L24.72,37.737z"/>
		<linearGradient id="SVGID_8_" gradientUnits="userSpaceOnUse" x1="30.3823" y1="0.4312" x2="30.3823" y2="44.7659">
			<stop  offset="0" style="stop-color:#0087D4"/>
			<stop  offset="1" style="stop-color:#00619A"/>
		</linearGradient>
		<path style="&st1;" d="M30.383,44.517c-2.566,0-4.16-1.963-4.16-4.438c0-2.499,1.651-4.415,4.16-4.415s4.158,1.916,4.158,4.415
			C34.542,42.553,32.945,44.517,30.383,44.517z M30.383,37.281c-1.548,0-2.465,1.371-2.465,2.729c0,1.294,0.648,2.89,2.465,2.89
			s2.463-1.596,2.463-2.89C32.847,38.652,31.932,37.281,30.383,37.281z"/>
		<linearGradient id="SVGID_9_" gradientUnits="userSpaceOnUse" x1="37.9526" y1="0.4312" x2="37.9526" y2="44.7659">
			<stop  offset="0" style="stop-color:#0087D4"/>
			<stop  offset="1" style="stop-color:#00619A"/>
		</linearGradient>
		<path style="&st2;" d="M40.963,38.119c-0.458-0.561-1.149-0.895-1.851-0.895c-1.575,0-2.476,1.45-2.476,2.902
			c0,1.413,0.935,2.831,2.461,2.831c0.703,0,1.407-0.369,1.865-0.891v1.95c-0.614,0.291-1.227,0.501-1.906,0.501
			c-2.364,0-4.115-2.041-4.115-4.359c0-2.386,1.683-4.494,4.148-4.494c0.656,0,1.304,0.178,1.873,0.49V38.119z"/>
		<linearGradient id="SVGID_10_" gradientUnits="userSpaceOnUse" x1="42.8628" y1="0.4312" x2="42.8628" y2="44.7659">
			<stop  offset="0" style="stop-color:#0087D4"/>
			<stop  offset="1" style="stop-color:#00619A"/>
		</linearGradient>
		<path style="&st3;" d="M43.684,44.293h-1.642v-8.409h1.642V44.293z"/>
		<linearGradient id="SVGID_11_" gradientUnits="userSpaceOnUse" x1="48.0405" y1="0.4312" x2="48.0405" y2="44.7659">
			<stop  offset="0" style="stop-color:#0087D4"/>
			<stop  offset="1" style="stop-color:#00619A"/>
		</linearGradient>
		<path style="&st4;" d="M46.591,42.521L45.9,44.293h-1.729l3.281-8.63h1.27l3.187,8.63h-1.75l-0.644-1.772H46.591z M48.008,38.126
			h-0.022l-0.924,3.058h1.995L48.008,38.126z"/>
		<linearGradient id="SVGID_12_" gradientUnits="userSpaceOnUse" x1="54.3901" y1="0.4312" x2="54.3901" y2="44.7659">
			<stop  offset="0" style="stop-color:#0087D4"/>
			<stop  offset="1" style="stop-color:#00619A"/>
		</linearGradient>
		<path style="&st5;" d="M54.052,42.867h2.317v1.426h-3.958v-8.409h1.642V42.867z"/>
		<linearGradient id="SVGID_13_" gradientUnits="userSpaceOnUse" x1="62.7251" y1="0.4312" x2="62.7251" y2="44.7659">
			<stop  offset="0" style="stop-color:#0087D4"/>
			<stop  offset="1" style="stop-color:#00619A"/>
		</linearGradient>
		<path style="&st6;" d="M65.736,38.119c-0.458-0.561-1.149-0.895-1.851-0.895c-1.577,0-2.477,1.45-2.477,2.902
			c0,1.413,0.936,2.831,2.465,2.831c0.702,0,1.405-0.369,1.863-0.891v1.95c-0.61,0.291-1.229,0.501-1.906,0.501
			c-2.366,0-4.116-2.041-4.116-4.359c0-2.386,1.683-4.494,4.148-4.494c0.658,0,1.306,0.178,1.875,0.49V38.119z"/>
		<linearGradient id="SVGID_14_" gradientUnits="userSpaceOnUse" x1="70.5732" y1="0.4312" x2="70.5732" y2="44.7659">
			<stop  offset="0" style="stop-color:#0087D4"/>
			<stop  offset="1" style="stop-color:#00619A"/>
		</linearGradient>
		<path style="&st7;" d="M70.576,44.517c-2.566,0-4.162-1.963-4.162-4.438c0-2.499,1.651-4.415,4.162-4.415
			c2.505,0,4.156,1.916,4.156,4.415C74.732,42.553,73.138,44.517,70.576,44.517z M70.576,37.281c-1.553,0-2.467,1.371-2.467,2.729
			c0,1.294,0.648,2.89,2.467,2.89c1.815,0,2.461-1.596,2.461-2.89C73.038,38.652,72.123,37.281,70.576,37.281z"/>
		<linearGradient id="SVGID_15_" gradientUnits="userSpaceOnUse" x1="78.7334" y1="0.4312" x2="78.7334" y2="44.7659">
			<stop  offset="0" style="stop-color:#0087D4"/>
			<stop  offset="1" style="stop-color:#00619A"/>
		</linearGradient>
		<path style="&st8;" d="M75.532,35.884h2.345c2.428,0,4.058,1.819,4.058,4.215c0,2.367-1.673,4.194-4.069,4.194h-2.333V35.884z
			 M77.176,42.867h0.263c2.023,0,2.803-1.114,2.803-2.775c0-1.831-0.938-2.777-2.803-2.777h-0.263V42.867z"/>
		<linearGradient id="SVGID_16_" gradientUnits="userSpaceOnUse" x1="83.5552" y1="0.4312" x2="83.5552" y2="44.7659">
			<stop  offset="0" style="stop-color:#0087D4"/>
			<stop  offset="1" style="stop-color:#00619A"/>
		</linearGradient>
		<path style="&st9;" d="M84.374,44.293h-1.638v-8.409h1.638V44.293z"/>
		<linearGradient id="SVGID_17_" gradientUnits="userSpaceOnUse" x1="89.2017" y1="0.4312" x2="89.2017" y2="44.7659">
			<stop  offset="0" style="stop-color:#0087D4"/>
			<stop  offset="1" style="stop-color:#00619A"/>
		</linearGradient>
		<path style="&st10;" d="M85.567,35.663h1.183l4.425,5.875h0.021v-5.654h1.64v8.577h-1.179l-4.431-5.876h-0.018v5.708h-1.642
			V35.663z"/>
		<linearGradient id="SVGID_18_" gradientUnits="userSpaceOnUse" x1="97.5415" y1="0.4312" x2="97.5415" y2="44.7659">
			<stop  offset="0" style="stop-color:#0087D4"/>
			<stop  offset="1" style="stop-color:#00619A"/>
		</linearGradient>
		<path style="&st11;" d="M101.457,39.823v0.211c0,2.375-1.215,4.482-3.824,4.482c-2.456,0-4.006-2.074-4.006-4.391
			c0-2.4,1.594-4.462,4.103-4.462c1.43,0,2.677,0.725,3.325,2.007l-1.448,0.78c-0.335-0.758-1.051-1.337-1.918-1.337
			c-1.584,0-2.364,1.616-2.364,3.012c0,1.391,0.79,2.941,2.376,2.941c1.025,0,1.883-0.893,1.915-1.906h-1.786v-1.337H101.457z"/>
	</g>
</g>
<linearGradient id="SVGID_19_" gradientUnits="userSpaceOnUse" x1="9.5176" y1="0.4312" x2="9.5176" y2="44.7659">
	<stop  offset="0" style="stop-color:#0087D4"/>
	<stop  offset="1" style="stop-color:#00619A"/>
</linearGradient>
<path style="&st12;" d="M18.808,10.958v5.051c-0.44,0.146-1.062,0.344-1.896,0.54c0.245,0.734,0.393,1.471,0.393,2.107
	c0,4.168-2.795,7.648-6.768,8.237c-1.324,0.198-2.485,0.883-2.485,2.11c0,1.956,2.535,2.303,3.613,2.451
	c4.658,0.735,6.55,3.285,6.55,6.544c0,4.018-2.578,6.631-8.609,6.631c-2.5,0-4.98-0.184-6.598-1.067
	C1,42.437,0.228,40.72,0.228,38.316c0-2.744,1.262-4.608,4.302-5.638V32.58c-1.128-0.686-1.667-1.963-1.667-3.482
	c0-1.381,0.539-2.645,1.568-3.087v-0.097c-1.029-0.343-1.961-1.177-2.795-2.451c-0.93-1.373-1.373-2.845-1.373-4.413
	c0-2.354,0.833-4.314,2.5-5.884c1.618-1.47,3.999-2.207,6.205-2.207c1.618,0,3.089,0.393,4.462,1.177
	C15,12.135,16.75,11.744,18.808,10.958z M9.508,35.424c-2.647,0-4.438,0.883-4.438,2.6c0,1.714,1.459,2.419,4.352,2.419
	c2.501,0,4.206-0.752,4.206-2.519C13.626,36.258,12.253,35.424,9.508,35.424z M8.812,22.479c2.011,0,3.729-1.128,3.729-3.431
	c0-2.039-1.578-3.579-3.729-3.579c-2.046,0-3.619,1.225-3.619,3.628C5.194,21.352,6.754,22.479,8.812,22.479z"/>
<g>
	<g>
		<linearGradient id="SVGID_20_" gradientUnits="userSpaceOnUse" x1="23.5815" y1="-50.5688" x2="23.5815" y2="-6.204">
			<stop  offset="0" style="stop-color:#0087D4"/>
			<stop  offset="1" style="stop-color:#00619A"/>
		</linearGradient>
		<path style="&st26;" d="M23.608-42.461c-0.998,0-1.849-0.377-2.552-1.132c-0.705-0.758-1.057-1.651-1.057-2.682
			c0-1.065,0.352-1.976,1.057-2.734c0.703-0.754,1.555-1.134,2.552-1.134c0.96,0,1.798,0.379,2.499,1.134
			c0.705,0.759,1.057,1.669,1.057,2.734c0,1.031-0.352,1.924-1.057,2.682C25.406-42.838,24.568-42.461,23.608-42.461L23.608-42.461z
			 M23.608-42.461"/>
		<linearGradient id="SVGID_21_" gradientUnits="userSpaceOnUse" x1="23.6021" y1="-50.5688" x2="23.602" y2="-6.204">
			<stop  offset="0" style="stop-color:#0087D4"/>
			<stop  offset="1" style="stop-color:#00619A"/>
		</linearGradient>
		<path style="&st27;" d="M20.856-16.862c0-0.656,0-2.221,0-3.797v-15.305c0-1.541,0-2.602,0-3.198h5.491c0,0.61,0,1.657,0,3.101
			v15.105c0,1.673,0,3.299,0,4.093H20.856z M20.856-16.862"/>
		<linearGradient id="SVGID_22_" gradientUnits="userSpaceOnUse" x1="35.2407" y1="-50.5688" x2="35.2407" y2="-6.204">
			<stop  offset="0" style="stop-color:#0087D4"/>
			<stop  offset="1" style="stop-color:#00619A"/>
		</linearGradient>
		<path style="&st28;" d="M36.758-39.162h4.087v4.998c-0.164,0-0.496,0-0.908,0c-0.447,0-0.668,0-1.063,0h-2.116v9.284
			c0,2.197,0.723,3.297,2.165,3.297c1.018,0,2.066-0.279,2.884-0.837v4.918c-1.213,0.66-2.801,0.986-4.508,0.986
			c-2.394,0-4.052-0.854-4.97-2.558c-0.689-1.28-1.033-3.297-1.033-6.055v-8.937l0,0v-0.099h-0.689c-0.426,0-1.28,0-1.932,0v-4.998
			h2.67v-1.918c0-0.918,0-1.649,0-2.214h5.413c0,0.593,0,1.33,0,2.116V-39.162z M36.758-39.162"/>
		<linearGradient id="SVGID_23_" gradientUnits="userSpaceOnUse" x1="52.7783" y1="-50.5688" x2="52.7783" y2="-6.204">
			<stop  offset="0" style="stop-color:#0087D4"/>
			<stop  offset="1" style="stop-color:#00619A"/>
		</linearGradient>
		<path style="&st29;" d="M53.72-39.311c-1.408,0-2.755,0.494-4.3,1.479v-8.612c0-1.871,0-3.89,0-3.89h-5.491c0,0,0,1.954,0,3.89
			v26.031c0,1.507,0,3.55,0,3.55h5.491v-1.671c0,0,0-1.321,0-1.878v-12.105c1.15-1.083,2.133-1.624,3.22-1.624
			c1.247,0,2.134,0.621,2.79,1.869c0.492,0.984,0.737,2.212,0.737,3.69l-0.026,6.645c0,1.116,0,5.075,0,5.075h5.488v-4.978v-6.742
			c0-2.853-0.638-5.282-1.918-7.281C58.266-38.161,56.314-39.311,53.72-39.311L53.72-39.311z M53.72-39.311"/>
		<linearGradient id="SVGID_24_" gradientUnits="userSpaceOnUse" x1="72.5073" y1="-50.5688" x2="72.5073" y2="-6.204">
			<stop  offset="0" style="stop-color:#0087D4"/>
			<stop  offset="1" style="stop-color:#00619A"/>
		</linearGradient>
		<path style="&st30;" d="M71.078-16.665c-2.592,0-4.51-1.147-5.756-3.443c-0.984-1.873-1.476-4.314-1.476-7.333v-7.194
			c0-2.23,0-4.527,0-4.527h5.476v4.626l-0.016,7.096c0,1.869,0.213,3.214,0.642,4.036c0.492,1.017,1.396,1.525,2.706,1.525
			c0.918,0,1.954-0.541,3.097-1.626v-12.555c0-0.557,0-1.918,0-1.918v-1.183h5.417c0,0,0,1.59,0,3.101v15.511
			c0,1.934,0,3.688,0,3.688h-5.264v-1.77C74.391-17.321,72.785-16.665,71.078-16.665L71.078-16.665z M71.078-16.665"/>
		<linearGradient id="SVGID_25_" gradientUnits="userSpaceOnUse" x1="92.6431" y1="-50.5688" x2="92.6431" y2="-6.204">
			<stop  offset="0" style="stop-color:#0087D4"/>
			<stop  offset="1" style="stop-color:#00619A"/>
		</linearGradient>
		<path style="&st31;" d="M93.484-16.714c-1.772,0-3.571-0.64-4.75-1.918v1.77h-5.197c0,0,0-1.592,0-3.098v-26.483
			c0-1.936,0-3.89,0-3.89h5.493c0,0,0,2.019,0,3.89v8.563c1.507-0.952,3.307-1.43,4.751-1.43c2.588,0,4.625,1.15,6.1,3.447
			c1.248,1.999,1.869,4.686,1.869,7.54c0,2.92-0.656,5.656-1.968,7.821C98.209-17.977,96.108-16.714,93.484-16.714L93.484-16.714z
			 M92.23-34.141c-1.083,0-2.021,0.542-3.2,1.624v8.964c1.049,1.018,1.889,1.525,2.904,1.525c1.28,0,2.762-0.706,3.421-2.116
			c0.523-1.114,0.784-2.637,0.784-4.18C96.139-32.031,94.49-34.141,92.23-34.141L92.23-34.141z M92.23-34.141"/>
	</g>
	<g>
		<linearGradient id="SVGID_26_" gradientUnits="userSpaceOnUse" x1="23.0913" y1="-50.5688" x2="23.0913" y2="-6.204">
			<stop  offset="0" style="stop-color:#0087D4"/>
			<stop  offset="1" style="stop-color:#00619A"/>
		</linearGradient>
		<path style="&st13;" d="M24.72-12.596c-0.312-0.423-0.713-0.691-1.26-0.691c-0.525,0-1.025,0.403-1.025,0.948
			c0,1.415,3.333,0.824,3.333,3.646c0,1.681-1.047,2.876-2.766,2.876c-1.16,0-2.007-0.669-2.586-1.64l1.059-1.037
			c0.223,0.648,0.814,1.227,1.519,1.227c0.666,0,1.081-0.569,1.081-1.217c0-0.867-0.804-1.112-1.462-1.369
			c-1.083-0.446-1.875-0.994-1.875-2.297c0-1.395,1.039-2.521,2.453-2.521c0.749,0,1.786,0.368,2.297,0.935L24.72-12.596z"/>
		<linearGradient id="SVGID_27_" gradientUnits="userSpaceOnUse" x1="30.3823" y1="-50.5688" x2="30.3823" y2="-6.204">
			<stop  offset="0" style="stop-color:#0087D4"/>
			<stop  offset="1" style="stop-color:#00619A"/>
		</linearGradient>
		<path style="&st14;" d="M30.383-5.816c-2.566,0-4.16-1.963-4.16-4.438c0-2.499,1.651-4.415,4.16-4.415s4.158,1.916,4.158,4.415
			C34.542-7.78,32.945-5.816,30.383-5.816z M30.383-13.052c-1.548,0-2.465,1.371-2.465,2.729c0,1.294,0.648,2.89,2.465,2.89
			s2.463-1.596,2.463-2.89C32.847-11.681,31.932-13.052,30.383-13.052z"/>
		<linearGradient id="SVGID_28_" gradientUnits="userSpaceOnUse" x1="37.9526" y1="-50.5688" x2="37.9526" y2="-6.204">
			<stop  offset="0" style="stop-color:#0087D4"/>
			<stop  offset="1" style="stop-color:#00619A"/>
		</linearGradient>
		<path style="&st15;" d="M40.963-12.214c-0.458-0.561-1.149-0.895-1.851-0.895c-1.575,0-2.476,1.45-2.476,2.902
			c0,1.413,0.935,2.831,2.461,2.831c0.703,0,1.407-0.369,1.865-0.891v1.95c-0.614,0.291-1.227,0.501-1.906,0.501
			c-2.364,0-4.115-2.041-4.115-4.359c0-2.386,1.683-4.494,4.148-4.494c0.656,0,1.304,0.178,1.873,0.49V-12.214z"/>
		<linearGradient id="SVGID_29_" gradientUnits="userSpaceOnUse" x1="42.8628" y1="-50.5688" x2="42.8628" y2="-6.204">
			<stop  offset="0" style="stop-color:#0087D4"/>
			<stop  offset="1" style="stop-color:#00619A"/>
		</linearGradient>
		<path style="&st16;" d="M43.684-6.04h-1.642v-8.409h1.642V-6.04z"/>
		<linearGradient id="SVGID_30_" gradientUnits="userSpaceOnUse" x1="48.0405" y1="-50.5688" x2="48.0405" y2="-6.204">
			<stop  offset="0" style="stop-color:#0087D4"/>
			<stop  offset="1" style="stop-color:#00619A"/>
		</linearGradient>
		<path style="&st17;" d="M46.591-7.812L45.9-6.04h-1.729l3.281-8.63h1.27l3.187,8.63h-1.75l-0.644-1.772H46.591z M48.008-12.207
			h-0.022l-0.924,3.058h1.995L48.008-12.207z"/>
		<linearGradient id="SVGID_31_" gradientUnits="userSpaceOnUse" x1="54.3901" y1="-50.5688" x2="54.3901" y2="-6.204">
			<stop  offset="0" style="stop-color:#0087D4"/>
			<stop  offset="1" style="stop-color:#00619A"/>
		</linearGradient>
		<path style="&st18;" d="M54.052-7.466h2.317v1.426h-3.958v-8.409h1.642V-7.466z"/>
		<linearGradient id="SVGID_32_" gradientUnits="userSpaceOnUse" x1="62.7251" y1="-50.5688" x2="62.7251" y2="-6.204">
			<stop  offset="0" style="stop-color:#0087D4"/>
			<stop  offset="1" style="stop-color:#00619A"/>
		</linearGradient>
		<path style="&st19;" d="M65.736-12.214c-0.458-0.561-1.149-0.895-1.851-0.895c-1.577,0-2.477,1.45-2.477,2.902
			c0,1.413,0.936,2.831,2.465,2.831c0.702,0,1.405-0.369,1.863-0.891v1.95c-0.61,0.291-1.229,0.501-1.906,0.501
			c-2.366,0-4.116-2.041-4.116-4.359c0-2.386,1.683-4.494,4.148-4.494c0.658,0,1.306,0.178,1.875,0.49V-12.214z"/>
		<linearGradient id="SVGID_33_" gradientUnits="userSpaceOnUse" x1="70.5732" y1="-50.5688" x2="70.5732" y2="-6.204">
			<stop  offset="0" style="stop-color:#0087D4"/>
			<stop  offset="1" style="stop-color:#00619A"/>
		</linearGradient>
		<path style="&st20;" d="M70.576-5.816c-2.566,0-4.162-1.963-4.162-4.438c0-2.499,1.651-4.415,4.162-4.415
			c2.505,0,4.156,1.916,4.156,4.415C74.732-7.78,73.138-5.816,70.576-5.816z M70.576-13.052c-1.553,0-2.467,1.371-2.467,2.729
			c0,1.294,0.648,2.89,2.467,2.89c1.815,0,2.461-1.596,2.461-2.89C73.038-11.681,72.123-13.052,70.576-13.052z"/>
		<linearGradient id="SVGID_34_" gradientUnits="userSpaceOnUse" x1="78.7334" y1="-50.5688" x2="78.7334" y2="-6.204">
			<stop  offset="0" style="stop-color:#0087D4"/>
			<stop  offset="1" style="stop-color:#00619A"/>
		</linearGradient>
		<path style="&st21;" d="M75.532-14.449h2.345c2.428,0,4.058,1.819,4.058,4.215c0,2.367-1.673,4.194-4.069,4.194h-2.333V-14.449z
			 M77.176-7.466h0.263c2.023,0,2.803-1.114,2.803-2.775c0-1.831-0.938-2.777-2.803-2.777h-0.263V-7.466z"/>
		<linearGradient id="SVGID_35_" gradientUnits="userSpaceOnUse" x1="83.5552" y1="-50.5688" x2="83.5552" y2="-6.204">
			<stop  offset="0" style="stop-color:#0087D4"/>
			<stop  offset="1" style="stop-color:#00619A"/>
		</linearGradient>
		<path style="&st22;" d="M84.374-6.04h-1.638v-8.409h1.638V-6.04z"/>
		<linearGradient id="SVGID_36_" gradientUnits="userSpaceOnUse" x1="89.2017" y1="-50.5688" x2="89.2017" y2="-6.204">
			<stop  offset="0" style="stop-color:#0087D4"/>
			<stop  offset="1" style="stop-color:#00619A"/>
		</linearGradient>
		<path style="&st23;" d="M85.567-14.67h1.183l4.425,5.875h0.021v-5.654h1.64v8.577h-1.179l-4.431-5.876h-0.018v5.708h-1.642V-14.67
			z"/>
		<linearGradient id="SVGID_37_" gradientUnits="userSpaceOnUse" x1="97.5415" y1="-50.5688" x2="97.5415" y2="-6.204">
			<stop  offset="0" style="stop-color:#0087D4"/>
			<stop  offset="1" style="stop-color:#00619A"/>
		</linearGradient>
		<path style="&st24;" d="M101.457-10.51v0.211c0,2.375-1.215,4.482-3.824,4.482c-2.456,0-4.006-2.074-4.006-4.391
			c0-2.4,1.594-4.462,4.103-4.462c1.43,0,2.677,0.725,3.325,2.007l-1.448,0.78c-0.335-0.758-1.051-1.337-1.918-1.337
			c-1.584,0-2.364,1.616-2.364,3.012c0,1.391,0.79,2.941,2.376,2.941c1.025,0,1.883-0.893,1.915-1.906h-1.786v-1.337H101.457z"/>
	</g>
</g>
<linearGradient id="SVGID_38_" gradientUnits="userSpaceOnUse" x1="9.5176" y1="-50.5688" x2="9.5176" y2="-6.204">
	<stop  offset="0" style="stop-color:#0087D4"/>
	<stop  offset="1" style="stop-color:#00619A"/>
</linearGradient>
<path style="&st25;" d="M18.808-39.375v5.051c-0.44,0.146-1.062,0.344-1.896,0.54c0.245,0.734,0.393,1.471,0.393,2.107
	c0,4.168-2.795,7.648-6.768,8.237c-1.324,0.198-2.485,0.883-2.485,2.11c0,1.956,2.535,2.303,3.613,2.451
	c4.658,0.735,6.55,3.285,6.55,6.544c0,4.018-2.578,6.631-8.609,6.631c-2.5,0-4.98-0.184-6.598-1.067
	C1-7.896,0.228-9.613,0.228-12.017c0-2.744,1.262-4.608,4.302-5.638v-0.099c-1.128-0.686-1.667-1.963-1.667-3.482
	c0-1.381,0.539-2.645,1.568-3.087v-0.097c-1.029-0.343-1.961-1.177-2.795-2.451c-0.93-1.373-1.373-2.845-1.373-4.413
	c0-2.354,0.833-4.314,2.5-5.884c1.618-1.47,3.999-2.207,6.205-2.207c1.618,0,3.089,0.393,4.462,1.177
	C15-38.198,16.75-38.589,18.808-39.375z M9.508-14.909c-2.647,0-4.438,0.883-4.438,2.6c0,1.714,1.459,2.419,4.352,2.419
	c2.501,0,4.206-0.752,4.206-2.519C13.626-14.075,12.253-14.909,9.508-14.909z M8.812-27.854c2.011,0,3.729-1.128,3.729-3.431
	c0-2.039-1.578-3.579-3.729-3.579c-2.046,0-3.619,1.225-3.619,3.628C5.194-28.981,6.754-27.854,8.812-27.854z"/>
</svg>
